<?xml version="1.0" encoding="utf-8"?>
<!-- Generator: Adobe Illustrator 16.0.4, SVG Export Plug-In . SVG Version: 6.00 Build 0)  -->
<!DOCTYPE svg PUBLIC "-//W3C//DTD SVG 1.1//EN" "http://www.w3.org/Graphics/SVG/1.1/DTD/svg11.dtd">
<svg version="1.1" id="Capa_1" xmlns="http://www.w3.org/2000/svg" xmlns:xlink="http://www.w3.org/1999/xlink" x="0px" y="0px"
	 width="324px" height="324px" viewBox="0 0 324 324" enable-background="new 0 0 324 324" xml:space="preserve">
<g>
	<g>
		<path fill="#1D1D1B" d="M161.999,282.386c-66.381,0-120.385-54.005-120.385-120.386S95.618,41.614,161.999,41.614
			c66.382,0,120.387,54.005,120.387,120.386S228.381,282.386,161.999,282.386z M161.999,55.614
			c-58.661,0-106.385,47.725-106.385,106.386s47.724,106.386,106.385,106.386c58.662,0,106.387-47.725,106.387-106.386
			S220.661,55.614,161.999,55.614z"/>
	</g>
	<g>
		<path fill="#1D1D1B" d="M160.788,121.1c2.76,0,5.329,0.439,7.71,1.32c2.379,0.879,4.439,2.199,6.18,3.959s3.1,3.961,4.08,6.6
			c0.98,2.641,1.471,5.74,1.471,9.301c0,3.119-0.4,6-1.201,8.641c-0.8,2.639-2.01,4.92-3.629,6.84
			c-1.621,1.92-3.641,3.43-6.061,4.529s-5.271,1.65-8.55,1.65h-18.479V121.1H160.788z M160.128,156.02
			c1.359,0,2.679-0.221,3.96-0.66c1.279-0.439,2.42-1.17,3.42-2.189c1-1.021,1.801-2.35,2.4-3.99s0.9-3.641,0.9-6
			c0-2.16-0.211-4.111-0.631-5.852c-0.42-1.738-1.109-3.229-2.07-4.469c-0.959-1.24-2.23-2.189-3.81-2.85
			c-1.581-0.66-3.53-0.99-5.851-0.99h-6.719v27H160.128z"/>
	</g>
	<g>
		<path fill="#1D1D1B" d="M212.448,121.1c2.76,0,5.329,0.439,7.71,1.32c2.379,0.879,4.439,2.199,6.18,3.959s3.1,3.961,4.08,6.6
			c0.98,2.641,1.471,5.74,1.471,9.301c0,3.119-0.4,6-1.201,8.641c-0.8,2.639-2.01,4.92-3.629,6.84
			c-1.621,1.92-3.641,3.43-6.061,4.529s-5.271,1.65-8.55,1.65h-18.479V121.1H212.448z M211.788,156.02
			c1.359,0,2.679-0.221,3.96-0.66c1.279-0.439,2.42-1.17,3.42-2.189c1-1.021,1.801-2.35,2.4-3.99s0.9-3.641,0.9-6
			c0-2.16-0.211-4.111-0.631-5.852c-0.42-1.738-1.109-3.229-2.07-4.469c-0.959-1.24-2.23-2.189-3.81-2.85
			c-1.581-0.66-3.53-0.99-5.851-0.99h-6.719v27H211.788z"/>
	</g>
	<g>
		<path fill="#1D1D1B" d="M161.761,240.349c-28.778,0-54.933-16.995-66.631-43.296l12.791-5.689
			c9.453,21.253,30.586,34.985,53.84,34.985c23.725,0,45.025-14.119,54.268-35.971l12.895,5.453
			C217.484,222.875,191.122,240.349,161.761,240.349z"/>
	</g>
	<g>
		<path fill="#1D1D1B" d="M116.21,121.1l16.02,42.84h-9.779l-3.24-9.541h-16.02l-3.36,9.541h-9.48l16.2-42.84H116.21z
			 M116.75,147.379l-5.4-15.72h-0.12l-5.579,15.72H116.75z"/>
	</g>
</g>
</svg>
